# xmcd
#
# Track frame offsets:
#	150
#	9891
#	30994
#	43312
#	57112
#	71906
#	85331
#	99845
#	116644
#	131492
#	147758
#	167537
#	182989
#	191161
#	204699
#
# Disc length: 2932 seconds
# Revision: 0
# Processed by: cddbd v1.5.2PL0 Copyright (c) Steve Scherf et al.
# Submitted via: dBpowerAMP V12.0
#
DISCID=ce0b720f
DTITLE=Bovisa String Band - Traditional Bluegrass, The
DYEAR=2008
DGENRE=Bluegrass
TTITLE0=Blue Moon of Kentucky
TTITLE1=Will the Circle be Unbroken
TTITLE2=I've Just Seen a Face
TTITLE3=Earl's Breakdown
TTITLE4=Human Highway
TTITLE5=My Walking Shoes Don't Fit Me Anymore
TTITLE6=Country Roads (take me home)
TTITLE7=Pick Away
TTITLE8=Turn of the Century
TTITLE9=Auld Lang Sine
TTITLE10=Lucille
TTITLE11=Black Mountain Rag
TTITLE12=I'm Going to Heaven
TTITLE13=Yes Sir That's My Baby
TTITLE14=Duelling Banjos
EXTD=
EXTT0=
EXTT1=
EXTT2=
EXTT3=
EXTT4=
EXTT5=
EXTT6=
EXTT7=
EXTT8=
EXTT9=
EXTT10=
EXTT11=
EXTT12=
EXTT13=
EXTT14=
PLAYORDER=
